<svg version="1" xmlns="http://www.w3.org/2000/svg" width="666.667" height="666.667" viewBox="0 0 500.000000 500.000000"><path d="M233 66c-59 4.7-110.8 35.8-144 86.5-11.6 17.8-21.6 42.7-26.2 65.6-2 10-2.3 14.4-2.3 35.4 0 27.4 1.4 37 8.6 58.8 9.7 29.6 25.4 54.4 48.5 76.7 11.4 11 18.9 16.9 30.6 24.2 73.1 45.4 167 35.9 229.2-23.2 82.5-78.3 77.1-211.7-11.5-283-29.9-24.1-65.2-38-104.1-41-13.5-1.1-15-1-28.8 0zm-7.7 140.3c3.8 1.9 6.6 4.1 8.1 6.5 4.9 7.6 5.1 9.6 5.1 44.5 0 31.4-.1 32.9-1.9 34.3-1.5 1.1-5.8 1.4-18.7 1.4-16.2 0-16.8-.1-18.3-2.2-1.4-1.9-1.6-6.6-1.6-31.6 0-39.6.2-39.2-18.7-39.2-11 0-11.3.1-14.5 2.9l-3.3 2.9-.5 32.2c-.5 30.4-.6 32.2-2.4 33.6-1.5 1.1-5.9 1.4-18.8 1.4-16.6 0-16.8 0-18.3-2.4-1.4-2.1-1.6-6.6-1.3-35.3l.3-32.8 2.8-5.8c1.6-3.1 4.3-6.8 6.1-8.2 6.6-5 10.8-5.5 52.1-5.2l38 .2 5.8 2.8zm130.6.3c6.8 2 12.2 7.4 14.7 14.5 1.6 4.5 1.9 8.5 1.9 23.7 0 23.7 1.4 22.2-20.7 22.2-15.5 0-15.9-.1-18.3-2.5-2.4-2.3-2.5-2.8-2.5-17.5 0-23.5-1.1-25-19.2-25-11.6 0-11.8 0-15 2.9l-3.3 2.9-.3 20.4c-.4 21.4.3 26.1 3.9 29.4 1.9 1.7 4.3 1.9 29.3 2.4 27 .5 27.1.5 32.6 3.2 9.5 4.6 13.4 13 13.4 28.3 0 11.4-2.2 18.3-7.5 23.6-6.8 6.8-8 6.9-61.9 6.9-47.2 0-47.7 0-49.6-2.1-2.5-2.8-2.6-10.1-.1-12.6 1.6-1.6 4.9-1.8 36.6-2.3 38.1-.5 37.1-.4 39.8-6.7 2.6-6.3 1-15.8-3.2-19.3-1.5-1.2-6.9-1.6-29.4-2-30.7-.6-32-.9-38.4-7.5-6.4-6.6-7.2-10.7-7.2-38.5 0-28.1.8-32.3 7.5-39 6.7-6.7 7.7-6.8 52.1-6.9 33-.1 40.4.2 44.8 1.5z"/></svg>